<?xml version="1.0" encoding="UTF-8"?>
<svg id="Capa_1" xmlns="http://www.w3.org/2000/svg" version="1.1" viewBox="0 0 671 179">
  <!-- Generator: Adobe Illustrator 29.0.0, SVG Export Plug-In . SVG Version: 2.1.0 Build 186)  -->
  <defs>
    <style>
      .st0 {
        fill: #fca41a;
      }

      .st1 {
        fill: #f63f1f;
      }

      .st2 {
        fill: #ffc317;
      }
    </style>
  </defs>
  <path class="st2" d="M374.1,8c-4.5.5-25.9,3.9-47.5,7.5-21.6,3.6-44.4,7-50.6,7.5-24,2-52.1-3.3-77.9-14.5-1.4-.7-1.9.2-2.5,4.4-1.1,8.4-.8,22.6.8,25.6,4.3,8.5,38.8,14.1,69,11,17-1.7,35.4-5.1,74.3-13.8,17.5-3.8,36.9-7.8,43.3-8.7,35.5-5.1,61.5-2.5,86.5,8.8,5.9,2.6,11,4.8,11.4,4.8,1.4,0-5.8-10.8-9.6-14.4-13.8-12.8-39.5-19.6-72.7-19.3-9,.1-20,.5-24.5,1.1Z"/>
  <path class="st0" d="M398.1,50c-14.2,2.3-30.7,6.2-61.2,14.5-54.3,14.9-71.7,18-101.1,18.1-14.2.1-24.7-.4-29.8-1.4-4.4-.8-8.3-1.1-8.7-.8-1.2,1.2-2.4,17.3-1.6,22.8.5,4.4,1.1,5.2,3.5,6,5.2,1.4,45.9.5,58-1.3,18.9-2.9,50.1-11.1,79.2-20.9,48.7-16.3,65.9-19.6,101.6-19.7,28,0,33.9.9,55.5,7.9,6.6,2.1,12.1,3.6,12.3,3.3,1.1-1.1-6.7-9.9-12.6-14.3-7.6-5.6-17.8-9.8-30.7-12.9-12.2-2.8-50.4-3.7-64.5-1.4Z"/>
  <path class="st1" d="M428.7,89.9c-18.2,2.3-47,10.2-94,25.6-20.8,6.9-43.4,13.9-50.3,15.7-28.7,7.6-57,12.1-76.4,12.1h-11.8l-.8,5c-.3,2.8-.7,9.3-.7,14.4v9.3l14.5-.7c14.5-.8,36.2-3.7,49.6-6.8,10.8-2.5,44-13.7,76.8-25.7,60.3-22.2,91.2-30.4,122.9-32.2,19-1.2,44.9,2.6,63.1,9.4,4.8,1.7,9,3.1,9.2,2.7,1-.9-2.8-6.8-7.2-11.4-8.1-8.3-24-14.2-46.8-17.2-13.2-1.7-36.6-2-48.4-.4Z"/>
</svg>