<?xml version="1.0" encoding="UTF-8"?>
<svg id="Capa_1" xmlns="http://www.w3.org/2000/svg" version="1.1" viewBox="0 0 671 179">
  <!-- Generator: Adobe Illustrator 29.0.0, SVG Export Plug-In . SVG Version: 2.1.0 Build 186)  -->
  <defs>
    <style>
      .st0 {
        fill: #f63f1f;
      }
    </style>
  </defs>
  <path d="M347,45v35h48v-11.8l-16.5-.7-16.5-.7v-23.2c0-12.7-.3-25.5-.6-28.4l-.7-5.2h-13.7v35Z"/>
  <path class="st0" d="M171,16.1c-4.1.5-23.7,3.6-43.5,6.9s-40.6,6.4-46.3,6.9c-22,1.8-47.7-3-71.3-13.3-1.3-.6-1.7.2-2.3,4-1,7.7-.7,20.7.7,23.4,3.9,7.8,35.5,12.9,63.2,10.1,15.6-1.6,32.4-4.7,68-12.6,16-3.5,33.8-7.1,39.6-8,32.5-4.7,56.3-2.3,79.2,8.1,5.4,2.4,10.1,4.4,10.4,4.4,1.3,0-5.3-9.9-8.8-13.2-12.6-11.7-36.2-17.9-66.5-17.7-8.2.1-18.3.5-22.4,1Z"/>
  <path d="M409.5,28.4c-7.1,3-11,7.2-13,14-2,6.5-1.9,17.1.1,22.9,3.2,9.5,12.8,15.7,24.2,15.7s13.1-1.9,18.4-7.1c7.3-7.3,9.7-18.3,6.3-29.6-3.3-11.2-10.8-17-23.2-17.9-5.7-.4-7.8-.1-12.8,2ZM426,39.5c4.2,2.2,6.3,6.8,6.3,14,0,10.2-4.4,16-12,16s-4.9-.5-7.2-3.1c-3.3-3.6-4.5-11.2-3.1-18.4.5-2.5.9-4.8,1-5.3,0-1.4,6.5-4.7,9.3-4.7s4.1.7,5.7,1.5Z"/>
  <path d="M449.8,27.7c-1,.2-1.8.8-1.8,1.1s3.9,12.1,8.7,25.9l8.8,25.3h4.5c2.5,0,5.1-.4,5.8-.8.7-.5,3.7-7.4,6.6-15.4,3-8.1,5.7-15.1,6-15.7,1.1-1.8,2.3-1.3,3,1.3,1.8,7.2,11,28.7,12.6,29.6,1,.6,3.3,1,5,1,2.9,0,3.4-.5,6-6.3,3.7-8.2,15.4-44.6,14.6-45.5-.4-.3-3-.6-5.9-.7h-5.2l-1.2,4c-.7,2.2-2.6,9.5-4.4,16.2-1.7,6.8-3.5,12.3-3.9,12.3-1,0-5.2-9.6-9-20.5-4.1-11.7-7-14.3-13.2-11.4-1.9.8-3.4,4.1-7.8,16.5-2.9,8.5-5.8,15.3-6.3,15.1-.5-.1-2-4.3-3.3-9.2-1.3-5-3.4-12.2-4.6-16l-2.3-7-5.5-.2c-3,0-6.3.1-7.2.4Z"/>
  <path d="M535.7,27.7c-.4.3-.7,12.3-.7,26.5v25.8h13.7l.5-17.1c.6-20.8,1.2-22.1,10-22.9,3-.3,6.2-1.1,7.1-1.8,1.3-1.1,1.9-.7,4.1,3,6.7,11.7,15.6,34.7,15.6,40.8s.5,3.9-7.4,5.5c-2,.4-2.6,1.4-3.5,5.5-.6,2.8-1.1,5.3-1.1,5.5,0,.3,3.1.5,6.9.5,13.1,0,13.4-.5,35.8-62.8,3.1-8.6,2.8-9.2-5.4-9.2h-5.2l-3,9.7c-3.1,10.2-5.5,18.9-6.5,23.5-1.2,5.4-3.1,2.6-7.5-10.5-2.4-7.3-5.1-15.1-6.1-17.4l-1.8-4.1-9.6-.7c-11.8-.9-15.7-.2-20,3.5-1.9,1.7-3.6,3-3.9,3s-.8-1.1-1.1-2.5c-.9-3.4-8.6-6.1-10.9-3.8Z"/>
  <path class="st0" d="M193,54.5c-13,2.1-28.1,5.7-56,13.3-49.7,13.6-65.6,16.5-92.5,16.6-13,.1-22.6-.4-27.3-1.3-4-.7-7.6-1-8-.7-1.1,1.1-2.2,15.8-1.5,20.9.5,4,1,4.8,3.2,5.5,4.8,1.3,42,.5,53.1-1.2,17.3-2.7,45.9-10.2,72.5-19.1,44.6-14.9,60.3-17.9,93-18,25.6,0,31,.8,50.8,7.2,6,1.9,11.1,3.3,11.3,3,1-1-6.1-9.1-11.5-13.1-7-5.1-16.3-9-28.1-11.8-11.2-2.6-46.1-3.4-59-1.3Z"/>
  <path class="st0" d="M221,91.1c-16.7,2.1-43,9.3-86,23.4-19,6.3-39.7,12.7-46,14.4-26.3,7-52.2,11.1-69.9,11.1h-10.8l-.7,4.6c-.3,2.6-.6,8.5-.6,13.2v8.5l13.3-.6c13.3-.7,33.1-3.4,45.4-6.2,9.9-2.3,40.3-12.5,70.3-23.5,55.2-20.3,83.5-27.8,112.5-29.5,17.4-1.1,41.1,2.4,57.8,8.6,4.4,1.6,8.2,2.8,8.4,2.5.9-.8-2.6-6.2-6.6-10.4-7.4-7.6-22-13-42.8-15.7-12.1-1.6-33.5-1.8-44.3-.4Z"/>
  <path d="M365.5,94.8c-9.6,1.3-15.6,8.9-15.7,19.6-.1,9.4,4.7,14.6,19,20.5,12.9,5.3,16.3,9.3,12.7,14.7l-1.7,2.6-14.6-.3-14.6-.4-1.3,4.5c-1.1,3.9-1.1,4.6.2,5.6,2.6,2,13.7,3.9,22,3.9s9-.5,13.6-2.6c13.8-6.5,17.4-24.1,6.5-32.4-1.7-1.3-7.8-4.7-13.6-7.5-5.8-2.9-11.3-5.9-12.2-6.8-2.4-2-2.3-5.5.2-7.7,1.8-1.6,3.4-1.7,14.4-1.3l12.5.6,1.4-4.3c1.7-4.8,1.3-5.9-2.5-7.4-3.4-1.3-20-2.1-26.3-1.3Z"/>
  <path d="M455.9,94.6c-2.6.8-2.9,4.6-2.9,38v31.4h14v-14.8c.1-18.2.9-20.8,7.2-24,4.1-2.1,5.1-2.3,8.2-1.2,5.8,1.9,6.7,4.9,7.4,23.7l.5,16.3h11.9l-.4-20.8c-.4-18.4-.6-21.2-2.5-25.4-2.6-5.7-5.1-7.2-12.8-7.2-6.2.1-11,1.8-15.2,5.7-1.3,1.1-2.6,1.7-3,1.3-.5-.4-1-5.8-1.3-11.9l-.5-11.2-4.5-.2c-2.5,0-5.2.1-6.1.3Z"/>
  <path d="M632.4,97.7c-1.1,4.2.3,57.4,1.6,60.8.6,1.6,2.2,3.8,3.7,4.9,2.8,2.1,9.8,3.2,13.8,2.2,8.2-2.1,8.7-12.6.6-12.6s-4.1-2.2-4.1-16.4-.3-17.2-.7-25.9l-.6-15.7h-6.8c-6.6,0-6.9.1-7.5,2.7Z"/>
  <path d="M532.5,110.9c-5.3,1.4-9.1,3.9-13.8,9.1-5.4,6-6.1,8.7-5.5,20.8.7,13.6,4.8,19.5,16.7,23.7,12,4.2,25.3-1.1,31.6-12.6,2.6-4.7,3-6.4,3-13.4s-.4-8.7-3-13.3c-3.2-5.8-6.7-9.2-12.5-12.2-4.3-2.2-12.2-3.2-16.5-2.1ZM545.2,125.1c1.6,1.2,3.4,3.2,3.9,4.6,1.5,3.9,1.1,14.1-.7,17.9-3.3,6.8-12,8.5-17.6,3.5-3.1-2.8-3.3-3.4-3.6-10.9-.5-9.5,1.3-14.2,6.1-16.6s7.7-1.4,11.9,1.5Z"/>
  <path d="M589.9,111.3c-7.5,1.7-12.1,5.4-15.6,12.4-2.4,5.1-2.8,6.9-2.8,14.8s1.5,14.3,6.8,19.6c9.6,9.7,26,10.3,36.5,1.3,6-5.1,7.3-8.2,7.9-18.8.7-11.3-.3-14.9-6.3-21.5-6.8-7.5-15.7-10.2-26.5-7.8ZM601.9,123.4c4,2.1,6.2,6,6.8,11.9,1.4,14-7.6,22.7-17.3,16.8-4.1-2.5-6.4-7.7-6.4-14.4s2.8-11.3,8-13.9c4.2-2.2,5.3-2.2,8.9-.4Z"/>
  <path d="M416.4,113.5c-2.3,1.3-5.9,5-8,8.1l-3.9,5.6v10.2c0,12.2,1.8,17.9,7.5,23,2.1,1.9,5.8,4,8.2,4.7,8.4,2.2,22.9-.8,24.3-5.1.3-1,.1-3-.5-4.5l-1-2.8-7.9.7c-7.5.7-7.9.6-11-2-4.4-3.7-6.1-7.4-6.1-13.4s1.5-9.4,4.9-12.4c1.7-1.6,3.5-1.9,9.3-1.8,8.2.1,10.3-.7,11.2-4.4,1.6-6.3-2.3-8.4-15.4-8.4s-8.2.5-11.6,2.5Z"/>
</svg>